ffmpeg version N-82314-g863ebe6 Copyright (c) 2000-2016 the FFmpeg developers
  built with gcc 5.4.0 (GCC)
  configuration: --disable-static --enable-shared --enable-gpl --enable-version3 --disable-w32threads --enable-dxva2 --enable-libmfx --enable-nvenc --enable-avisynth --enable-bzlib --enable-libebur128 --enable-fontconfig --enable-frei0r --enable-gnutls --enable-iconv --enable-libass --enable-libbluray --enable-libbs2b --enable-libcaca --enable-libfreetype --enable-libgme --enable-libgsm --enable-libilbc --enable-libmodplug --enable-libmp3lame --enable-libopencore-amrnb --enable-libopencore-amrwb --enable-libopenh264 --enable-libopenjpeg --enable-libopus --enable-librtmp --enable-libschroedinger --enable-libsnappy --enable-libsoxr --enable-libspeex --enable-libtheora --enable-libtwolame --enable-libvidstab --enable-libvo-amrwbenc --enable-libvorbis --enable-libvpx --enable-libwavpack --enable-libwebp --enable-libx264 --enable-libx265 --enable-libxavs --enable-libxvid --enable-libzimg --enable-lzma --enable-decklink --enable-zlib
  libavutil      55. 36.100 / 55. 36.100
  libavcodec     57. 66.101 / 57. 66.101
  libavformat    57. 57.100 / 57. 57.100
  libavdevice    57.  2.100 / 57.  2.100
  libavfilter     6. 66.100 /  6. 66.100
  libswscale      4.  3.100 /  4.  3.100
  libswresample   2.  4.100 /  2.  4.100
  libpostproc    54.  2.100 / 54.  2.100
Input #0, mov,mp4,m4a,3gp,3g2,mj2, from 'test.mp4':
  Metadata:
    major_brand     : mp42
    minor_version   : 1
    compatible_brands: mp42avc1
    creation_time   : 2010-02-09T01:55:39.000000Z
  Duration: 00:01:00.10, start: 0.000000, bitrate: 733 kb/s
    Stream #0:0(eng): Audio: aac (LC) (mp4a / 0x6134706D), 22050 Hz, stereo, fltp, 65 kb/s (default)
    Metadata:
      creation_time   : 2010-02-09T01:55:39.000000Z
      handler_name    : Apple Sound Media Handler
    Stream #0:1(eng): Video: h264 (Constrained Baseline) (avc1 / 0x31637661), yuv420p(tv, smpte170m/smpte170m/bt709), 640x360, 612 kb/s, 23.96 fps, 24 tbr, 600 tbn, 1200 tbc (default)
    Metadata:
      creation_time   : 2010-02-09T01:55:39.000000Z
      handler_name    : Apple Video Media Handler
    Stream #0:2(eng): Data: none (rtp  / 0x20707472), 45 kb/s
    Metadata:
      creation_time   : 2010-02-09T01:55:39.000000Z
      handler_name    : hint media handler
    Stream #0:3(eng): Data: none (rtp  / 0x20707472), 5 kb/s
    Metadata:
      creation_time   : 2010-02-09T01:55:39.000000Z
      handler_name    : hint media handler
[Parsed_showinfo_1 @ 000000000269ca40] config in time_base: 1/600, frame_rate: 24/1
[Parsed_showinfo_1 @ 000000000269ca40] config out time_base: 0/0, frame_rate: 0/0
Output #0, null, to 'pipe:':
  Metadata:
    major_brand     : mp42
    minor_version   : 1
    compatible_brands: mp42avc1
    encoder         : Lavf57.57.100
    Stream #0:0(eng): Video: wrapped_avframe, rgb24, 640x360, q=2-31, 200 kb/s, 24 fps, 24 tbn, 24 tbc (default)
    Metadata:
      creation_time   : 2010-02-09T01:55:39.000000Z
      handler_name    : Apple Video Media Handler
      encoder         : Lavc57.66.101 wrapped_avframe
    Stream #0:1(eng): Audio: pcm_s16le, 22050 Hz, stereo, s16, 705 kb/s (default)
    Metadata:
      creation_time   : 2010-02-09T01:55:39.000000Z
      handler_name    : Apple Sound Media Handler
      encoder         : Lavc57.66.101 pcm_s16le
Stream mapping:
  Stream #0:1 -> #0:0 (h264 (native) -> wrapped_avframe (native))
  Stream #0:0 -> #0:1 (aac (native) -> pcm_s16le (native))
Press [q] to stop, [?] for help
[Parsed_showinfo_1 @ 000000000269ca40] n:   0 pts:     25 pts_time:0.0416667 pos:    73594 fmt:rgb24 sar:0/1 s:640x360 i:P iskey:0 type:P checksum:E2CC3B55 plane_checksum:[E2CC3B55] mean:[0 ] stdev:[0.2 ]
[Parsed_showinfo_1 @ 000000000269ca40] n:   1 pts:   7125 pts_time:11.875  pos:  1087144 fmt:rgb24 sar:0/1 s:640x360 i:P iskey:0 type:P checksum:51984FBD plane_checksum:[51984FBD] mean:[125 ] stdev:[65.6 ]
[Parsed_showinfo_1 @ 000000000269ca40] n:   2 pts:   9450 pts_time:15.75   pos:  1439229 fmt:rgb24 sar:0/1 s:640x360 i:P iskey:0 type:P checksum:515190A6 plane_checksum:[515190A6] mean:[174 ] stdev:[51.9 ]
[Parsed_showinfo_1 @ 000000000269ca40] n:   3 pts:  13825 pts_time:23.0417 pos:  2105301 fmt:rgb24 sar:0/1 s:640x360 i:P iskey:0 type:P checksum:B1DCF183 plane_checksum:[B1DCF183] mean:[100 ] stdev:[44.8 ]
frame=    4 fps=0.0 q=-0.0 size=N/A time=00:00:39.70 bitrate=N/A speed=79.4x    [Parsed_showinfo_1 @ 000000000269ca40] n:   4 pts:  28625 pts_time:47.7083 pos:  4252453 fmt:rgb24 sar:0/1 s:640x360 i:P iskey:0 type:P checksum:80E9C5A5 plane_checksum:[80E9C5A5] mean:[121 ] stdev:[62.7 ]
[Parsed_showinfo_1 @ 000000000269ca40] n:   5 pts:  33650 pts_time:56.0833 pos:  5192246 fmt:rgb24 sar:0/1 s:640x360 i:P iskey:0 type:P checksum:B7987FAE plane_checksum:[B7987FAE] mean:[188 ] stdev:[35.1 ]
frame=    6 fps=0.0 q=-0.0 Lsize=N/A time=00:01:00.13 bitrate=N/A speed=79.9x    
video:3kB audio:5180kB subtitle:0kB other streams:0kB global headers:0kB muxing overhead: unknown
